<mxfile host="Electron" agent="Mozilla/5.0 (Windows NT 10.0; Win64; x64) AppleWebKit/537.36 (KHTML, like Gecko) draw.io/27.0.9 Chrome/134.0.6998.205 Electron/35.4.0 Safari/537.36" version="27.0.9">
  <diagram name="Страница — 1" id="UCWoFuZ4aHsK1xcGj13c">
    <mxGraphModel dx="679" dy="404" grid="1" gridSize="10" guides="1" tooltips="1" connect="1" arrows="1" fold="1" page="1" pageScale="1" pageWidth="827" pageHeight="1169" math="0" shadow="0">
      <root>
        <mxCell id="0" />
        <mxCell id="1" parent="0" />
        <mxCell id="hpZn0IwJ1dAY_SYnC_Kp-3" style="edgeStyle=orthogonalEdgeStyle;rounded=0;orthogonalLoop=1;jettySize=auto;html=1;exitX=1;exitY=0.5;exitDx=0;exitDy=0;entryX=0;entryY=0.5;entryDx=0;entryDy=0;" edge="1" parent="1" source="hpZn0IwJ1dAY_SYnC_Kp-1" target="hpZn0IwJ1dAY_SYnC_Kp-2">
          <mxGeometry relative="1" as="geometry" />
        </mxCell>
        <mxCell id="hpZn0IwJ1dAY_SYnC_Kp-4" value="Оплата" style="edgeLabel;html=1;align=center;verticalAlign=middle;resizable=0;points=[];" vertex="1" connectable="0" parent="hpZn0IwJ1dAY_SYnC_Kp-3">
          <mxGeometry x="-0.234" y="2" relative="1" as="geometry">
            <mxPoint as="offset" />
          </mxGeometry>
        </mxCell>
        <mxCell id="hpZn0IwJ1dAY_SYnC_Kp-1" value="Пациент" style="whiteSpace=wrap;align=center;verticalAlign=middle;fontStyle=1;strokeWidth=1;fillColor=#FFFFCC" vertex="1" parent="1">
          <mxGeometry x="80" y="100" width="90" height="60" as="geometry" />
        </mxCell>
        <mxCell id="hpZn0IwJ1dAY_SYnC_Kp-6" style="edgeStyle=orthogonalEdgeStyle;rounded=0;orthogonalLoop=1;jettySize=auto;html=1;exitX=1;exitY=0.5;exitDx=0;exitDy=0;" edge="1" parent="1" source="hpZn0IwJ1dAY_SYnC_Kp-2" target="hpZn0IwJ1dAY_SYnC_Kp-5">
          <mxGeometry relative="1" as="geometry" />
        </mxCell>
        <mxCell id="hpZn0IwJ1dAY_SYnC_Kp-2" value="&lt;p style=&quot;margin: 4px 0px 0px; text-decoration: underline;&quot;&gt;&lt;strong&gt;Кассир&lt;br&gt;&lt;/strong&gt;&lt;/p&gt;&lt;hr&gt;&lt;p style=&quot;margin: 0px; margin-left: 8px;&quot;&gt;Приём денежных&amp;nbsp;&lt;/p&gt;&lt;p style=&quot;margin: 0px; margin-left: 8px;&quot;&gt;средств&lt;/p&gt;" style="verticalAlign=middle;align=center;overflow=fill;fontSize=12;fontFamily=Helvetica;html=1;rounded=1;fontStyle=1;strokeWidth=1;fillColor=#E6FFCC;spacing=2;" vertex="1" parent="1">
          <mxGeometry x="264" y="85" width="150" height="90" as="geometry" />
        </mxCell>
        <mxCell id="hpZn0IwJ1dAY_SYnC_Kp-8" style="edgeStyle=orthogonalEdgeStyle;rounded=0;orthogonalLoop=1;jettySize=auto;html=1;exitX=1;exitY=0.5;exitDx=0;exitDy=0;entryX=0;entryY=0.5;entryDx=0;entryDy=0;" edge="1" parent="1" source="hpZn0IwJ1dAY_SYnC_Kp-5" target="hpZn0IwJ1dAY_SYnC_Kp-7">
          <mxGeometry relative="1" as="geometry" />
        </mxCell>
        <mxCell id="hpZn0IwJ1dAY_SYnC_Kp-5" value="&lt;p style=&quot;margin: 4px 0px 0px; text-decoration: underline;&quot;&gt;&lt;strong&gt;Учёт платежей&lt;/strong&gt;&lt;/p&gt;&lt;hr&gt;&lt;p style=&quot;margin: 0px; margin-left: 8px;&quot;&gt;ККМ + 1С:Бухгалтерия&lt;/p&gt;" style="verticalAlign=middle;align=center;overflow=fill;fontSize=12;fontFamily=Helvetica;html=1;rounded=1;fontStyle=1;strokeWidth=1;fillColor=#E6FFCC;spacing=2;" vertex="1" parent="1">
          <mxGeometry x="500" y="85" width="150" height="90" as="geometry" />
        </mxCell>
        <mxCell id="hpZn0IwJ1dAY_SYnC_Kp-7" value="1С:Бухгалтерия предприятия" style="shape=process;whiteSpace=wrap;align=center;verticalAlign=middle;size=0.0475;fontStyle=1;strokeWidth=1;fillColor=#FFCCCC" vertex="1" parent="1">
          <mxGeometry x="740" y="105" width="400" height="50" as="geometry" />
        </mxCell>
        <mxCell id="hpZn0IwJ1dAY_SYnC_Kp-10" style="edgeStyle=orthogonalEdgeStyle;rounded=0;orthogonalLoop=1;jettySize=auto;html=1;entryX=0.5;entryY=1;entryDx=0;entryDy=0;startArrow=classic;startFill=1;" edge="1" parent="1" source="hpZn0IwJ1dAY_SYnC_Kp-9" target="hpZn0IwJ1dAY_SYnC_Kp-7">
          <mxGeometry relative="1" as="geometry" />
        </mxCell>
        <mxCell id="hpZn0IwJ1dAY_SYnC_Kp-9" value="1С:Торговля и склад" style="shape=process;whiteSpace=wrap;align=center;verticalAlign=middle;size=0.0475;fontStyle=1;strokeWidth=1;fillColor=#FFCCCC" vertex="1" parent="1">
          <mxGeometry x="740" y="280" width="400" height="50" as="geometry" />
        </mxCell>
        <mxCell id="hpZn0IwJ1dAY_SYnC_Kp-12" style="edgeStyle=orthogonalEdgeStyle;rounded=0;orthogonalLoop=1;jettySize=auto;html=1;exitX=1;exitY=0.5;exitDx=0;exitDy=0;entryX=0;entryY=0.5;entryDx=0;entryDy=0;" edge="1" parent="1" source="hpZn0IwJ1dAY_SYnC_Kp-11" target="hpZn0IwJ1dAY_SYnC_Kp-9">
          <mxGeometry relative="1" as="geometry" />
        </mxCell>
        <mxCell id="hpZn0IwJ1dAY_SYnC_Kp-11" value="&lt;p style=&quot;margin: 4px 0px 0px; text-decoration: underline;&quot;&gt;&lt;strong&gt;Учёт ТМЦ&lt;/strong&gt;&lt;/p&gt;&lt;hr&gt;&lt;p style=&quot;margin: 0px; margin-left: 8px;&quot;&gt;1С:Торговля и склад&lt;/p&gt;" style="verticalAlign=middle;align=center;overflow=fill;fontSize=12;fontFamily=Helvetica;html=1;rounded=1;fontStyle=1;strokeWidth=1;fillColor=#E6FFCC;spacing=2;" vertex="1" parent="1">
          <mxGeometry x="500" y="260" width="150" height="90" as="geometry" />
        </mxCell>
        <mxCell id="hpZn0IwJ1dAY_SYnC_Kp-14" style="edgeStyle=orthogonalEdgeStyle;rounded=0;orthogonalLoop=1;jettySize=auto;html=1;exitX=1;exitY=0.5;exitDx=0;exitDy=0;entryX=0;entryY=0.5;entryDx=0;entryDy=0;" edge="1" parent="1" source="hpZn0IwJ1dAY_SYnC_Kp-13" target="hpZn0IwJ1dAY_SYnC_Kp-11">
          <mxGeometry relative="1" as="geometry" />
        </mxCell>
        <mxCell id="hpZn0IwJ1dAY_SYnC_Kp-15" value="Приём и отгрузка&lt;div&gt;ТМЦ&lt;/div&gt;" style="edgeLabel;html=1;align=center;verticalAlign=middle;resizable=0;points=[];" vertex="1" connectable="0" parent="hpZn0IwJ1dAY_SYnC_Kp-14">
          <mxGeometry x="-0.2069" y="1" relative="1" as="geometry">
            <mxPoint as="offset" />
          </mxGeometry>
        </mxCell>
        <mxCell id="hpZn0IwJ1dAY_SYnC_Kp-13" value="Сотрудник&#xa;склада" style="whiteSpace=wrap;align=center;verticalAlign=middle;fontStyle=1;strokeWidth=1;fillColor=#FFFFCC" vertex="1" parent="1">
          <mxGeometry x="270" y="275" width="90" height="60" as="geometry" />
        </mxCell>
        <mxCell id="hpZn0IwJ1dAY_SYnC_Kp-17" style="edgeStyle=orthogonalEdgeStyle;rounded=0;orthogonalLoop=1;jettySize=auto;html=1;exitX=1;exitY=0.5;exitDx=0;exitDy=0;entryX=0;entryY=0.5;entryDx=0;entryDy=0;" edge="1" parent="1" source="hpZn0IwJ1dAY_SYnC_Kp-16" target="hpZn0IwJ1dAY_SYnC_Kp-5">
          <mxGeometry relative="1" as="geometry">
            <Array as="points">
              <mxPoint x="450" y="230" />
              <mxPoint x="450" y="130" />
            </Array>
          </mxGeometry>
        </mxCell>
        <mxCell id="hpZn0IwJ1dAY_SYnC_Kp-16" value="Бухгалтер" style="whiteSpace=wrap;align=center;verticalAlign=middle;fontStyle=1;strokeWidth=1;fillColor=#FFFFCC" vertex="1" parent="1">
          <mxGeometry x="270" y="200" width="90" height="60" as="geometry" />
        </mxCell>
      </root>
    </mxGraphModel>
  </diagram>
</mxfile>
